<?xml version="1.0" standalone="no"?><!DOCTYPE svg PUBLIC "-//W3C//DTD SVG 1.1//EN" "http://www.w3.org/Graphics/SVG/1.1/DTD/svg11.dtd"><svg t="1521712837482" class="icon" style="" viewBox="0 0 1024 1024" version="1.1" xmlns="http://www.w3.org/2000/svg" p-id="985" xmlns:xlink="http://www.w3.org/1999/xlink" width="200" height="200"><defs><style type="text/css"></style></defs><path d="M291.3 959c-37.9 0-69.2-4.7-93-14-16.4-6.4-29.4-15.1-38.7-25.8-11.4-13.1-17.1-28.9-17.2-46.8 0-19.8 7.9-38.2 22.8-53.2 14.8-14.9 36.2-26.4 63.4-34.2 22.3-6.4 47.8-9.9 71.8-9.9v46c-42.5 0-84.7 12.6-102.6 30.6-6.4 6.4-9.4 13-9.4 20.6 0 9.1 3.1 20.7 26.6 29.9 18.2 7.1 44.6 10.8 76.3 10.8 23.7 0 89.3-16.1 104.9-23.4l19.6 41.6c-20.4 9.6-93.6 27.8-124.5 27.8zM168 212.2c-2.6 0-5.3-0.4-7.9-1.4-11.9-4.4-18.1-17.6-13.7-29.5 4.7-12.9 18.8-35.5 60.8-41.3 25.9-3.6 56.5 0.4 86.3 11.3 11.9 4.3 18.1 17.5 13.7 29.5-4.3 11.9-17.5 18.1-29.5 13.7-47.7-17.4-84.2-8.2-88.1 2.5-3.4 9.4-12.2 15.2-21.6 15.2z" fill="" p-id="986"></path><path d="M163.9 891.5c-12.8 0-23-10.4-23-23.1v-0.1c0.9-225 1.5-393.7 1.9-506.2l0.7-168.6c0.1-12.7 10.4-23 23-23 12.7 0 23 10.3 23 23 0 3.2-0.8 224-2.6 675.1 0 12.6-10.3 22.9-23 22.9zM370 832.2h46v99.6h-46zM802 832H343c-39.1 0-71-31.9-71-71V201c0-39.1 31.9-71 71-71h459c39.1 0 71 31.9 71 71v560c0 39.1-31.9 71-71 71zM343 176c-13.8 0-25 11.2-25 25v560c0 13.8 11.2 25 25 25h459c13.8 0 25-11.2 25-25V201c0-13.8-11.2-25-25-25H343z" fill="" p-id="987"></path><path d="M429 227h189c17.7 0 32 14.3 32 32s-14.3 32-32 32H429c-17.7 0-32-14.3-32-32s14.3-32 32-32zM415 356h335c12.7 0 23 10.3 23 23s-10.3 23-23 23H415c-12.7 0-23-10.3-23-23s10.3-23 23-23zM415 467h335c12.7 0 23 10.3 23 23s-10.3 23-23 23H415c-12.7 0-23-10.3-23-23s10.3-23 23-23zM415 578h335c12.7 0 23 10.3 23 23s-10.3 23-23 23H415c-12.7 0-23-10.3-23-23s10.3-23 23-23zM420 689h335c12.7 0 23 10.3 23 23s-10.3 23-23 23H420c-12.7 0-23-10.3-23-23s10.3-23 23-23z" fill="" p-id="988"></path></svg>